<svg width="24" height="24" viewBox="0 0 24 24" fill="none" xmlns="http://www.w3.org/2000/svg">
<path d="M13.0967 12L18.7667 6.33C18.8941 6.18121 18.9607 5.98982 18.9531 5.79407C18.9455 5.59832 18.8644 5.41264 18.7259 5.27412C18.5874 5.1356 18.4017 5.05445 18.2059 5.04689C18.0102 5.03933 17.8188 5.10592 17.67 5.23334L12 10.9033L6.33 5.22556C6.18121 5.09814 5.98982 5.03156 5.79407 5.03912C5.59832 5.04668 5.41264 5.12782 5.27412 5.26634C5.1356 5.40486 5.05445 5.59055 5.04689 5.78629C5.03933 5.98204 5.10591 6.17343 5.23334 6.32222L10.9033 12L5.22556 17.67C5.14414 17.7397 5.07801 17.8255 5.03133 17.922C4.98464 18.0185 4.95841 18.1236 4.95427 18.2307C4.95013 18.3379 4.96818 18.4447 5.00728 18.5445C5.04639 18.6443 5.1057 18.7349 5.1815 18.8107C5.25729 18.8865 5.34794 18.9458 5.44775 18.9849C5.54756 19.024 5.65437 19.0421 5.76149 19.038C5.8686 19.0338 5.97371 19.0076 6.0702 18.9609C6.1667 18.9142 6.2525 18.8481 6.32222 18.7667L12 13.0967L17.67 18.7667C17.8188 18.8941 18.0102 18.9607 18.2059 18.9531C18.4017 18.9455 18.5874 18.8644 18.7259 18.7259C18.8644 18.5874 18.9455 18.4017 18.9531 18.2059C18.9607 18.0102 18.8941 17.8188 18.7667 17.67L13.0967 12Z" fill="#CCCCCC"/>
</svg>
