<svg width="20" height="20" viewBox="0 0 20 20" fill="none" xmlns="http://www.w3.org/2000/svg">
<path d="M16.9 18.3L11.3 12.7C10.8 13.1 10.225 13.4167 9.575 13.65C8.925 13.8833 8.23333 14 7.5 14C5.68333 14 4.146 13.371 2.888 12.113C1.62933 10.8543 1 9.31667 1 7.5C1 5.68333 1.62933 4.14567 2.888 2.887C4.146 1.629 5.68333 1 7.5 1C9.31667 1 10.8543 1.629 12.113 2.887C13.371 4.14567 14 5.68333 14 7.5C14 8.23333 13.8833 8.925 13.65 9.575C13.4167 10.225 13.1 10.8 12.7 11.3L18.325 16.925C18.5083 17.1083 18.6 17.3333 18.6 17.6C18.6 17.8667 18.5 18.1 18.3 18.3C18.1167 18.4833 17.8833 18.575 17.6 18.575C17.3167 18.575 17.0833 18.4833 16.9 18.3ZM7.5 12C8.75 12 9.81267 11.5627 10.688 10.688C11.5627 9.81267 12 8.75 12 7.5C12 6.25 11.5627 5.18733 10.688 4.312C9.81267 3.43733 8.75 3 7.5 3C6.25 3 5.18733 3.43733 4.312 4.312C3.43733 5.18733 3 6.25 3 7.5C3 8.75 3.43733 9.81267 4.312 10.688C5.18733 11.5627 6.25 12 7.5 12Z" fill="#333333"/>
</svg>
